<svg width="100" height="71" viewBox="0 0 100 71" fill="none" xmlns="http://www.w3.org/2000/svg">
<path d="M32.6233 69.1977C32.9392 69.5765 33.3305 69.8853 33.7723 70.1044C34.2141 70.3236 34.6968 70.4482 35.1894 70.4705C35.6821 70.4928 36.174 70.4121 36.6338 70.2337C37.0936 70.0553 37.5112 69.7831 37.8599 69.4343C38.2086 69.0856 38.4809 68.668 38.6593 68.2083C38.8377 67.7485 38.9183 67.2566 38.8961 66.7639C38.8738 66.2712 38.7491 65.7886 38.53 65.3467C38.3109 64.9049 38.0021 64.5136 37.6233 64.1977L12.1133 38.6577L96.4333 38.6577C97.3435 38.6094 98.2006 38.2138 98.8278 37.5524C99.455 36.891 99.8047 36.0143 99.8047 35.1027C99.8047 34.1912 99.455 33.3144 98.8278 32.653C98.2006 31.9916 97.3435 31.596 96.4333 31.5477L12.1133 31.5477L37.6633 6.03773C38.3064 5.36428 38.6652 4.46891 38.6652 3.53773C38.6652 2.60656 38.3064 1.71119 37.6633 1.03773C37.3354 0.70877 36.9457 0.447761 36.5167 0.269669C36.0877 0.0915762 35.6278 -9.91821e-05 35.1633 -9.91821e-05C34.6988 -9.91821e-05 34.2389 0.0915762 33.8099 0.269669C33.3809 0.447761 32.9912 0.70877 32.6633 1.03773L1.0633 32.6377C0.726972 32.9615 0.459422 33.3498 0.276672 33.7793C0.0939224 34.2089 -0.000267029 34.6709 -0.000267029 35.1377C-0.000267029 35.6046 0.0939224 36.0666 0.276672 36.4962C0.459422 36.9257 0.726972 37.314 1.0633 37.6377L32.6233 69.1977Z" fill="white"/>
</svg>
