<svg width="100" height="71" viewBox="0 0 100 71" fill="none" xmlns="http://www.w3.org/2000/svg">
<path d="M67.1814 1.27638C66.8655 0.897622 66.4742 0.588829 66.0324 0.369691C65.5906 0.150554 65.1079 0.0258801 64.6152 0.00361857C64.1226 -0.0186429 63.6306 0.0619961 63.1709 0.240395C62.7111 0.418794 62.2935 0.691038 61.9448 1.03977C61.596 1.3885 61.3238 1.80608 61.1454 2.26586C60.967 2.72565 60.8864 3.21756 60.9086 3.71024C60.9309 4.20292 61.0556 4.68556 61.2747 5.12738C61.4938 5.56921 61.8026 5.96052 62.1814 6.27638L87.6914 31.8164H3.37139C2.46115 31.8647 1.60411 32.2603 0.976876 32.9217C0.349641 33.5831 0 34.4599 0 35.3714C0 36.2829 0.349641 37.1597 0.976876 37.8211C1.60411 38.4825 2.46115 38.8781 3.37139 38.9264H87.6914L62.1414 64.4364C61.4983 65.1098 61.1395 66.0052 61.1395 66.9364C61.1395 67.8676 61.4983 68.7629 62.1414 69.4364C62.4693 69.7654 62.859 70.0264 63.288 70.2045C63.717 70.3825 64.1769 70.4742 64.6414 70.4742C65.1059 70.4742 65.5658 70.3825 65.9948 70.2045C66.4238 70.0264 66.8135 69.7654 67.1414 69.4364L98.7414 37.8364C99.0777 37.5126 99.3453 37.1244 99.528 36.6948C99.7108 36.2652 99.805 35.8032 99.805 35.3364C99.805 34.8696 99.7108 34.4075 99.528 33.978C99.3453 33.5484 99.0777 33.1601 98.7414 32.8364L67.1814 1.27638Z" fill="white"/>
</svg>
