<svg width="72" height="101" viewBox="0 0 72 101" fill="none" xmlns="http://www.w3.org/2000/svg">
<path d="M69.8642 67.5161C70.243 67.2002 70.5518 66.8089 70.7709 66.3671C70.9901 65.9253 71.1147 65.4426 71.137 64.95C71.1593 64.4573 71.0786 63.9654 70.9002 63.5056C70.7218 63.0458 70.4496 62.6282 70.1009 62.2795C69.7521 61.9308 69.3345 61.6585 68.8748 61.4801C68.415 61.3017 67.9231 61.2211 67.4304 61.2433C66.9377 61.2656 66.4551 61.3903 66.0132 61.6094C65.5714 61.8285 65.1801 62.1373 64.8642 62.5161L39.3242 88.0261L39.3242 3.7061C39.2759 2.79586 38.8803 1.93883 38.2189 1.31159C37.5576 0.684357 36.6808 0.334715 35.7692 0.334715C34.8577 0.334715 33.9809 0.684356 33.3195 1.31159C32.6581 1.93883 32.2625 2.79586 32.2142 3.7061L32.2142 88.0261L6.70424 62.4761C6.03078 61.833 5.13541 61.4742 4.20424 61.4742C3.27306 61.4742 2.37769 61.833 1.70424 62.4761C1.37527 62.804 1.11426 63.1937 0.93617 63.6227C0.758077 64.0517 0.666402 64.5116 0.666402 64.9761C0.666402 65.4406 0.758077 65.9005 0.93617 66.3295C1.11426 66.7585 1.37527 67.1482 1.70424 67.4761L33.3042 99.0761C33.628 99.4124 34.0163 99.68 34.4458 99.8627C34.8754 100.045 35.3374 100.14 35.8042 100.14C36.2711 100.14 36.7331 100.045 37.1627 99.8627C37.5922 99.68 37.9805 99.4124 38.3042 99.0761L69.8642 67.5161Z" fill="white"/>
</svg>
