<svg width="95" height="95" viewBox="0 0 95 95" fill="none" xmlns="http://www.w3.org/2000/svg">
<path d="M57.975 47.475L92.775 12.675C95.675 9.775 95.675 5.075 92.775 2.175C89.875 -0.725 85.175 -0.725 82.275 2.175L47.475 36.975L12.675 2.175C9.775 -0.725 5.075 -0.725 2.175 2.175C-0.725 5.075 -0.725 9.775 2.175 12.675L36.975 47.475L2.175 82.275C-0.725 85.175 -0.725 89.875 2.175 92.775C3.575 94.175 5.475 94.975 7.375 94.975C9.275 94.975 11.175 94.275 12.575 92.775L47.475 57.975L82.275 92.775C83.675 94.175 85.575 94.975 87.475 94.975C89.375 94.975 91.275 94.275 92.675 92.775C95.575 89.875 95.575 85.175 92.675 82.275L57.975 47.475Z" fill="white"/>
</svg>
