<svg width="96" height="96" viewBox="0 0 96 96" fill="none" xmlns="http://www.w3.org/2000/svg">
<path d="M58.4984 47.9999L93.2984 13.1999C96.1984 10.2999 96.1984 5.5999 93.2984 2.6999C90.3984 -0.200098 85.6984 -0.200098 82.7984 2.6999L47.9984 37.4999L13.1984 2.6999C10.2984 -0.200098 5.59844 -0.200098 2.69844 2.6999C-0.201562 5.5999 -0.201562 10.2999 2.69844 13.1999L37.4984 47.9999L2.69844 82.7999C-0.201562 85.6999 -0.201562 90.3999 2.69844 93.2999C4.09844 94.6999 5.99844 95.4999 7.89844 95.4999C9.79844 95.4999 11.6984 94.7999 13.0984 93.2999L47.9984 58.4999L82.7984 93.2999C84.1984 94.6999 86.0984 95.4999 87.9984 95.4999C89.8984 95.4999 91.7984 94.7999 93.1984 93.2999C96.0984 90.3999 96.0984 85.6999 93.1984 82.7999L58.4984 47.9999Z" fill="black"/>
</svg>
