<svg width="318" height="318" viewBox="0 0 318 318" fill="none" xmlns="http://www.w3.org/2000/svg">
<path d="M317.799 231.2V301.5C317.799 302.9 317.599 304.2 317.299 305.4C315.899 312.3 309.799 317.5 302.599 317.5H15.2992C7.59922 317.5 1.19922 311.6 0.39922 304.1C0.19922 303.2 0.199219 302.4 0.199219 301.4V231.1C0.199219 222.8 6.99922 216.1 15.1992 216.1C19.2992 216.1 23.0992 217.8 25.7992 220.5C28.4992 223.2 30.1992 227 30.1992 231.1V287.4H287.899V231.1C287.899 222.8 294.699 216.1 302.899 216.1C306.999 216.1 310.799 217.8 313.499 220.5C316.099 223.3 317.799 227.1 317.799 231.2Z" fill="white"/>
<path d="M245.5 160.8L171.8 234.5C171.7 234.7 171.5 234.8 171.4 234.9C168.7 237.6 165.2 239.3 161.7 239.8C161.4 239.8 161.1 239.9 160.8 239.9C160.2 240 159.6 240 159 240L157.3 239.9C157 239.9 156.7 239.8 156.4 239.8C152.8 239.3 149.4 237.6 146.7 234.9C146.6 234.8 146.4 234.6 146.3 234.5L72.6 160.8C69.2 157.4 67.5 152.9 67.5 148.4C67.5 143.9 69.2 139.4 72.6 136C79.4 129.2 90.5 129.2 97.4 136L141.7 180.3V18C141.7 8.4 149.6 0.5 159.2 0.5C164 0.5 168.4 2.5 171.6 5.6C174.8 8.8 176.7 13.1 176.7 18V180.3L221 136C227.8 129.2 238.9 129.2 245.8 136C252.3 142.9 252.3 154 245.5 160.8Z" fill="white"/>
</svg>
