<svg width="28" height="36" viewBox="0 0 28 36" fill="none" xmlns="http://www.w3.org/2000/svg">
<path d="M5 0C3.80654 5.83425e-05 2.66198 0.474183 1.81808 1.31808C0.974183 2.16198 0.500058 3.30654 0.5 4.5V31.5C0.5 32.6935 0.974106 33.8381 1.81802 34.682C2.66193 35.5259 3.80653 36 5 36C6.19347 36 7.33807 35.5259 8.18198 34.682C9.02589 33.8381 9.5 32.6935 9.5 31.5V4.5C9.49994 3.30654 9.02582 2.16198 8.18192 1.31808C7.33802 0.474183 6.19346 5.83425e-05 5 0V0Z" fill="white"/>
<path d="M23 0C21.8065 5.83425e-05 20.662 0.474183 19.8181 1.31808C18.9742 2.16198 18.5001 3.30654 18.5 4.5V31.5C18.5 32.6935 18.9741 33.8381 19.818 34.682C20.6619 35.5259 21.8065 36 23 36C24.1935 36 25.3381 35.5259 26.182 34.682C27.0259 33.8381 27.5 32.6935 27.5 31.5V4.5C27.4999 3.30654 27.0258 2.16198 26.1819 1.31808C25.338 0.474183 24.1935 5.83425e-05 23 0Z" fill="white"/>
</svg>
