<svg width="419" height="419" viewBox="0 0 419 419" fill="none" xmlns="http://www.w3.org/2000/svg">
<path fill-rule="evenodd" clip-rule="evenodd" d="M209.026 0C93.4711 0 0 93.5141 0 209.122C0 209.185 2.7776e-05 209.248 8.33164e-05 209.311C2.77763e-05 209.374 0 209.437 0 209.5C0 325.204 93.7963 419 209.5 419C325.204 419 419 325.204 419 209.5C419 93.7963 325.204 0 209.5 0C209.421 0 209.342 4.3731e-05 209.263 0.00013117C209.184 4.37309e-05 209.105 0 209.026 0ZM209.263 0.00013117C93.7312 0.128031 0.102021 93.7733 8.33164e-05 209.311C0.101913 324.833 93.5341 418.758 209.026 418.758C324.581 418.758 418.566 324.73 418.566 209.122C418.566 93.5931 324.709 0.127908 209.263 0.00013117ZM224.947 142.84V275.918C224.947 290.818 237.273 303.15 252.166 303.15C267.574 303.15 279.9 290.818 279.9 275.918V142.84C279.9 127.94 267.574 115.608 252.166 115.608C237.273 115.608 224.947 127.94 224.947 142.84ZM138.666 142.84V275.918C138.666 290.818 150.992 303.15 165.885 303.15C181.293 303.15 193.619 290.818 193.619 275.918V142.84C193.619 127.94 181.293 115.608 165.885 115.608C150.992 115.608 138.666 127.94 138.666 142.84Z" fill="white"/>
</svg>
