<svg width="66" height="72" viewBox="0 0 66 72" fill="none" xmlns="http://www.w3.org/2000/svg">
<path d="M59.3691 55.4029H6.63213C3.01913 55.4029 0.078125 52.4639 0.078125 48.8499V23.1499C0.078125 19.5369 3.01813 16.5969 6.63213 16.5969H59.3691C62.9821 16.5969 65.9221 19.5369 65.9221 23.1499V48.8499C65.9221 52.4629 62.9821 55.4029 59.3691 55.4029ZM6.63213 19.5969C4.67213 19.5969 3.07812 21.1909 3.07812 23.1499V48.8499C3.07812 50.8089 4.67213 52.4029 6.63213 52.4029H59.3691C61.3281 52.4029 62.9221 50.8089 62.9221 48.8499V23.1499C62.9221 21.1909 61.3281 19.5969 59.3691 19.5969H6.63213V19.5969Z" fill="white"/>
<path d="M9.9556 40.898C7.25559 40.898 5.05859 38.7 5.05859 35.999C5.05859 33.299 7.25559 31.103 9.9556 31.103C12.6556 31.103 14.8526 33.299 14.8526 35.999C14.8526 38.7 12.6556 40.898 9.9556 40.898ZM9.9556 34.103C8.9096 34.103 8.05859 34.954 8.05859 35.999C8.05859 37.046 8.9106 37.898 9.9556 37.898C11.0006 37.898 11.8526 37.046 11.8526 35.999C11.8526 34.953 11.0016 34.103 9.9556 34.103Z" fill="white"/>
<path d="M58.0703 39.221C57.2423 39.221 56.5703 38.55 56.5703 37.721V29.717C56.5703 28.888 57.2423 28.217 58.0703 28.217C58.8983 28.217 59.5703 28.888 59.5703 29.717V37.721C59.5703 38.549 58.8983 39.221 58.0703 39.221Z" fill="white"/>
<path d="M58.0703 43.784C57.2423 43.784 56.5703 43.113 56.5703 42.284V41.803C56.5703 40.974 57.2423 40.303 58.0703 40.303C58.8983 40.303 59.5703 40.974 59.5703 41.803V42.284C59.5703 43.113 58.8983 43.784 58.0703 43.784Z" fill="white"/>
<path d="M50.5359 10.071C50.2359 10.071 49.9329 9.98195 49.6699 9.79495C44.7789 6.33295 39.0149 4.50195 32.9989 4.50195C27.1189 4.50195 21.4619 6.25695 16.6399 9.57695C15.9589 10.048 15.0249 9.87495 14.5539 9.19195C14.0839 8.50895 14.2559 7.57595 14.9389 7.10595C20.2639 3.43995 26.5089 1.50195 32.9989 1.50195C39.6399 1.50195 46.0039 3.52295 51.4039 7.34595C52.0799 7.82495 52.2399 8.76095 51.7609 9.43695C51.4689 9.85095 51.0059 10.071 50.5359 10.071Z" fill="white"/>
<path d="M43.686 11.4001C42.983 11.4001 42.355 10.9021 42.215 10.1851C42.058 9.37207 42.589 8.58407 43.402 8.42707L50.251 7.09807C51.063 6.94207 51.852 7.47107 52.01 8.28507C52.167 9.09807 51.636 9.88607 50.823 10.0431L43.974 11.3721C43.877 11.3911 43.78 11.4001 43.686 11.4001Z" fill="white"/>
<path d="M50.5366 10.0711C49.8536 10.0711 49.2376 9.60307 49.0766 8.91007L47.5316 2.26007C47.3436 1.45307 47.8456 0.647068 48.6526 0.460068C49.4596 0.269068 50.2646 0.774068 50.4536 1.58207L51.9986 8.23207C52.1866 9.03907 51.6846 9.84507 50.8776 10.0321C50.7636 10.0591 50.6486 10.0711 50.5366 10.0711Z" fill="white"/>
<path d="M32.8272 70.305C26.1872 70.305 19.8232 68.284 14.4232 64.46C13.7462 63.981 13.5862 63.045 14.0652 62.369C14.5442 61.692 15.4822 61.533 16.1562 62.012C21.0482 65.474 26.8132 67.305 32.8282 67.305C38.7072 67.305 44.3642 65.55 49.1872 62.23C49.8692 61.761 50.8022 61.932 51.2732 62.615C51.7432 63.298 51.5712 64.232 50.8882 64.701C45.5612 68.367 39.3162 70.305 32.8272 70.305Z" fill="white"/>
<path d="M15.2876 64.736C14.5846 64.736 13.9566 64.238 13.8166 63.521C13.6596 62.708 14.1906 61.92 15.0036 61.763L21.8526 60.434C22.6656 60.278 23.4526 60.807 23.6116 61.621C23.7686 62.434 23.2376 63.222 22.4246 63.379L15.5756 64.708C15.4786 64.727 15.3826 64.736 15.2876 64.736Z" fill="white"/>
<path d="M16.8345 71.386C16.1515 71.386 15.5355 70.918 15.3745 70.225L13.8285 63.575C13.6405 62.768 14.1425 61.962 14.9495 61.774C15.7575 61.584 16.5625 62.088 16.7505 62.895L18.2965 69.545C18.4845 70.352 17.9825 71.158 17.1755 71.346C17.0605 71.374 16.9465 71.386 16.8345 71.386Z" fill="white"/>
</svg>
