<svg id="Layer_1" data-name="Layer 1" xmlns="http://www.w3.org/2000/svg" viewBox="0 0 474.08 96.21"><defs><style>.cls-1{fill:#231f20;}</style></defs><title>Logo</title><path class="cls-1" d="M25.58,19.1H8V7H67.13V19.1H49.51V99.05H25.58Z" transform="translate(-7.96 -4.89)"/><path class="cls-1" d="M440.49,19.1H422.87V7H482V19.1H464.42V99.05H440.49Z" transform="translate(-7.96 -4.89)"/><path class="cls-1" d="M75.23,7h48.36V23.42H98.51V46.93h20.32V59.08H98.51v23.5H126V99.05H75.23Z" transform="translate(-7.96 -4.89)"/><path class="cls-1" d="M304.93,7H353.3V23.42H328.21V46.93h20.33V59.08H328.21v23.5h27.53V99.05H304.93Z" transform="translate(-7.96 -4.89)"/><path class="cls-1" d="M153.43,99.05H134.77V7h35.38l7.59,36.92,2.83,14.4H181l3-14.4L191.63,7H225.2v92.1H203.33V32.93h-.64l-3.86,16.73L187,99.05H168.73L157.67,49.78l-3.73-16.85h-.51Z" transform="translate(-7.96 -4.89)"/><path class="cls-1" d="M238.31,7h31.51c20.45,0,27.53,9.13,27.53,29.07,0,21.35-10.68,28.94-28.68,28.94h-7.08V99.05H238.31Zm27,45.87c5.4,0,8.23-6.38,8.23-16.8s-2.83-16.92-8.23-16.92h-3.73V52.82Z" transform="translate(-7.96 -4.89)"/><path class="cls-1" d="M358.56,74.35,375.8,70c2.06,12.75,6.56,19,14,19,5.53,0,9.26-4.8,9-12.16-.23-6.69-4.76-8.75-15.43-13.9-16.85-8.1-22.13-18.13-22.13-31.12,0-16.21,10.81-26.89,29.2-26.89C410.53,4.89,417,16,419,29.08l-17.5,5C400.76,22.55,398.37,17,390.46,17c-5.6,0-7.59,6.38-7.59,11.14,0,5.14,3.22,8.23,11.19,12.21,16.47,8.37,27,13.77,27,30.88,0,17.87-9.9,29.84-31.25,29.84C373.22,101.11,362,93.78,358.56,74.35Z" transform="translate(-7.96 -4.89)"/></svg>